<?xml version="1.0" encoding="UTF-8"?>
<svg version="1.1" xmlns="http://www.w3.org/2000/svg" width="512" height="512">
<path d="M0 0 C1.41646013 -0.0018724 2.83291975 -0.0041748 4.24937856 -0.00686532 C8.1096627 -0.01293673 11.96992502 -0.01285527 15.83021283 -0.01167095 C20.00625769 -0.01146575 24.18229576 -0.01699699 28.3583374 -0.02172852 C36.52827076 -0.03001013 44.69819689 -0.03278223 52.8681341 -0.03334089 C59.51433831 -0.03381726 66.16054016 -0.03587801 72.80674362 -0.03904152 C91.68077488 -0.04784148 110.55480047 -0.05246195 129.4288338 -0.05171105 C130.44484642 -0.05167109 131.46085903 -0.05163113 132.50765991 -0.05158997 C134.03355573 -0.05152864 134.03355573 -0.05152864 135.59027772 -0.05146609 C152.06700694 -0.05105985 168.54371328 -0.06062538 185.02043588 -0.07472833 C201.96883031 -0.08911966 218.91721361 -0.09599699 235.8656143 -0.09513456 C245.36866751 -0.09480353 254.87169673 -0.09750918 264.37474442 -0.10831261 C272.46718742 -0.11745399 280.55959556 -0.11956317 288.65204151 -0.11280318 C292.77377159 -0.10955618 296.89543493 -0.10941475 301.01715851 -0.11815643 C341.48905394 -0.19847718 341.48905394 -0.19847718 359.61849976 5.13371277 C359.61849976 5.79371277 359.61849976 6.45371277 359.61849976 7.13371277 C360.29912476 7.23683777 360.97974976 7.33996277 361.68099976 7.44621277 C365.24765964 8.28096295 368.2807217 9.62844031 371.61849976 11.13371277 C371.61849976 11.79371277 371.61849976 12.45371277 371.61849976 13.13371277 C372.49248413 13.37476746 373.36646851 13.61582214 374.26693726 13.86418152 C377.92589865 15.25015175 380.25335687 16.9403888 383.24349976 19.44621277 C384.16389038 20.20547058 385.08428101 20.96472839 386.03256226 21.74699402 C388.53430574 24.056005 390.54011566 26.44584473 392.61849976 29.13371277 C393.12381226 29.63257996 393.62912476 30.13144714 394.14974976 30.64543152 C398.95236442 35.51191074 402.89098455 41.8993923 405.61849976 48.13371277 C405.95752319 48.89425964 406.29654663 49.65480652 406.64584351 50.43840027 C408.91042673 55.74123216 410.192489 60.38256759 410.61849976 66.13371277 C411.27849976 66.13371277 411.93849976 66.13371277 412.61849976 66.13371277 C412.61849976 191.53371277 412.61849976 316.93371277 412.61849976 446.13371277 C411.95849976 446.13371277 411.29849976 446.13371277 410.61849976 446.13371277 C410.58111694 446.69058777 410.54373413 447.24746277 410.50521851 447.82121277 C410.02289339 453.41996701 408.78608096 457.95036641 406.61849976 463.13371277 C405.95849976 463.13371277 405.29849976 463.13371277 404.61849976 463.13371277 C404.41353882 463.76019714 404.20857788 464.38668152 403.99740601 465.03215027 C403.59328491 466.25804871 403.59328491 466.25804871 403.18099976 467.50871277 C402.78074585 468.72687683 402.78074585 468.72687683 402.37240601 469.96965027 C401.61849976 472.13371277 401.61849976 472.13371277 400.61849976 474.13371277 C399.95849976 474.13371277 399.29849976 474.13371277 398.61849976 474.13371277 C398.32974976 474.71121277 398.04099976 475.28871277 397.74349976 475.88371277 C397.37224976 476.62621277 397.00099976 477.36871277 396.61849976 478.13371277 C396.35037476 478.77308777 396.08224976 479.41246277 395.80599976 480.07121277 C394.16818234 482.91584302 391.98946349 484.87302642 389.61849976 487.13371277 C388.81412476 487.97933777 388.00974976 488.82496277 387.18099976 489.69621277 C380.41337155 496.13371277 380.41337155 496.13371277 376.61849976 496.13371277 C376.28849976 497.12371277 375.95849976 498.11371277 375.61849976 499.13371277 C373.62240601 500.30168152 373.62240601 500.30168152 371.18099976 501.32121277 C370.37791382 501.66539246 369.57482788 502.00957214 368.74740601 502.36418152 C366.61849976 503.13371277 366.61849976 503.13371277 364.61849976 503.13371277 C364.61849976 503.79371277 364.61849976 504.45371277 364.61849976 505.13371277 C363.40291382 505.48304871 362.18732788 505.83238464 360.93490601 506.19230652 C359.35022112 506.65177137 357.76558838 507.11141607 356.18099976 507.57121277 C354.97733765 507.91635925 354.97733765 507.91635925 353.74935913 508.26847839 C349.87796729 509.12077139 349.87796729 509.12077139 346.61849976 511.13371277 C344.61919023 511.23424013 342.61626638 511.2629585 340.61443233 511.26514053 C339.30065135 511.26898168 337.98687036 511.27282282 336.63327783 511.27678037 C335.15609732 511.27599997 333.67891685 511.27512116 332.20173645 511.27415466 C330.64739965 511.27673603 329.09306351 511.27974854 327.5387283 511.28315806 C323.24663434 511.29125861 318.95455709 511.29301933 314.66245639 511.29375553 C310.04127797 511.29560087 305.42010832 511.3031457 300.79893494 511.30989075 C290.68307832 511.32349765 280.56722566 511.32950284 270.45136142 511.33390141 C264.13768412 511.33666063 257.82400836 511.34089746 251.51033211 511.34540558 C234.03876434 511.35760279 216.56719781 511.36790025 199.09562588 511.37128067 C197.41681172 511.37161002 197.41681172 511.37161002 195.70408214 511.37194602 C194.58214357 511.3721643 193.460205 511.37238258 192.3042683 511.37260747 C190.03067553 511.37305094 187.75708276 511.3734975 185.48348999 511.37394714 C184.35570159 511.37416857 183.22791319 511.37439 182.06594939 511.37461814 C163.79699528 511.37856502 145.52808108 511.39601368 127.25914239 511.41930667 C108.51442481 511.44301376 89.76972725 511.45548228 71.02499443 511.45664859 C60.4959188 511.45756587 49.96689512 511.46333121 39.43783379 511.4814682 C30.47014225 511.49686073 21.50251872 511.50199477 12.5348165 511.4937301 C7.95869008 511.48982019 3.38270064 511.49076969 -1.19340897 511.50478745 C-5.38384216 511.51750634 -9.57403518 511.51634655 -13.76446795 511.50419673 C-15.2793775 511.50223621 -16.79430394 511.5053346 -18.30918974 511.5140411 C-25.89713544 511.55488518 -32.42127514 511.45574419 -39.38150024 508.13371277 C-40.77418898 507.70665319 -42.16944675 507.28770759 -43.56900024 506.88371277 C-49.89674522 504.82997098 -55.61044602 501.38940796 -61.38150024 498.13371277 C-61.38150024 497.47371277 -61.38150024 496.81371277 -61.38150024 496.13371277 C-62.10337524 495.90683777 -62.82525024 495.67996277 -63.56900024 495.44621277 C-66.96718327 493.86039402 -68.83381023 491.87247953 -71.38150024 489.13371277 C-72.18587524 488.34996277 -72.99025024 487.56621277 -73.81900024 486.75871277 C-85.38150024 474.91420057 -85.38150024 474.91420057 -85.38150024 470.13371277 C-86.04150024 470.13371277 -86.70150024 470.13371277 -87.38150024 470.13371277 C-88.05504524 468.69942276 -88.72009725 467.2611422 -89.38150024 465.82121277 C-89.75275024 465.02070496 -90.12400024 464.22019714 -90.50650024 463.39543152 C-91.38150024 461.13371277 -91.38150024 461.13371277 -91.38150024 458.13371277 C-92.04150024 458.13371277 -92.70150024 458.13371277 -93.38150024 458.13371277 C-96.41929422 446.94474996 -97.96773056 436.79107194 -97.88943481 425.15715027 C-97.89405896 423.62841197 -97.90042191 422.09967814 -97.90834379 420.57095337 C-97.92485281 416.42347598 -97.91687609 412.27637253 -97.90439892 408.12889481 C-97.89527417 403.63527805 -97.90935462 399.14172149 -97.9203186 394.64811707 C-97.93802986 385.8662117 -97.93429698 377.08444371 -97.92266804 368.30253315 C-97.91360473 361.16014804 -97.9124222 354.01780121 -97.91676331 346.87541199 C-97.91737624 345.85573995 -97.91798917 344.83606791 -97.91862068 343.78549671 C-97.91989968 341.71353021 -97.92119654 339.64156372 -97.92251104 337.56959724 C-97.93389518 318.17755426 -97.92083721 298.78558713 -97.89930958 279.39355659 C-97.88144058 262.78346653 -97.8845453 246.17348832 -97.90298462 229.56340027 C-97.92442969 210.23691977 -97.93279675 190.91050562 -97.92053556 171.58401489 C-97.91926148 169.52001446 -97.91800399 167.45601401 -97.91676331 165.39201355 C-97.9161462 164.37669965 -97.9155291 163.36138575 -97.9148933 162.31530476 C-97.9114513 155.18818877 -97.91724385 148.06111516 -97.92668152 140.93400574 C-97.93794338 132.23884664 -97.9347739 123.54383182 -97.91355854 114.84868908 C-97.90310419 110.41915136 -97.89882944 105.9898535 -97.91215515 101.56031799 C-97.92420259 97.49394419 -97.91731675 93.42802927 -97.89624494 89.36169624 C-97.89183052 87.90229297 -97.89392656 86.44284972 -97.9037481 84.98347282 C-97.9710773 74.13430747 -96.21117857 64.55613303 -93.38150024 54.13371277 C-92.72150024 54.13371277 -92.06150024 54.13371277 -91.38150024 54.13371277 C-91.17653931 53.51882996 -90.97157837 52.90394714 -90.76040649 52.27043152 C-89.63410441 48.89152527 -88.50780233 45.51261902 -87.38150024 42.13371277 C-86.72150024 42.13371277 -86.06150024 42.13371277 -85.38150024 42.13371277 C-85.18814087 41.29840027 -84.99478149 40.46308777 -84.79556274 39.60246277 C-82.93287912 35.0332278 -80.1481067 32.15330437 -76.75650024 28.63371277 C-75.86898071 27.67658386 -75.86898071 27.67658386 -74.96353149 26.70011902 C-69.68740066 21.12770438 -63.85466339 15.46907625 -56.38150024 13.13371277 C-56.38150024 12.47371277 -56.38150024 11.81371277 -56.38150024 11.13371277 C-52.3884508 9.44997692 -48.38779157 7.78568968 -44.38150024 6.13371277 C-43.27935181 5.67351746 -43.27935181 5.67351746 -42.15493774 5.20402527 C-28.77869195 -0.13546379 -14.18857901 -0.01701637 0 0 Z " fill="#000000" transform="translate(98.38150024414063,-0.1337127685546875)"/>
<path d="M0 0 C22.44 0 44.88 0 68 0 C68.99 5.61 69.98 11.22 71 17 C71.89952479 20.85124412 72.82229445 24.63353428 73.875 28.4375 C74.22111328 29.77071289 74.22111328 29.77071289 74.57421875 31.13085938 C76.12168709 36.80353076 78.22816967 41.80995877 81.01611328 46.98852539 C82 49 82 49 82 51 C82.66 51 83.32 51 84 51 C85.19140625 52.6171875 85.19140625 52.6171875 86.5625 54.875 C92.0141082 63.297801 98.59156331 70.49428817 107 76 C107.75925781 76.50144531 108.51851563 77.00289063 109.30078125 77.51953125 C118.31566741 83.19876575 127.58112262 86.87739243 137.9375 89.25 C138.99130859 89.49484131 138.99130859 89.49484131 140.06640625 89.74462891 C146.79091809 91.17970087 152.96857846 91.45912142 160 92 C160 114.44 160 136.88 160 160 C126.82398792 157.63028485 126.82398792 157.63028485 114.75390625 153.01171875 C111.68644893 151.8848089 108.61116639 151.151109 105.4375 150.375 C93.33379407 146.97251378 78.73761001 140.23615232 70 131 C70 130.34 70 129.68 70 129 C69.34 129 68.68 129 68 129 C68.00184359 129.77653773 68.00368717 130.55307547 68.00558662 131.35314465 C68.0498544 150.29295639 68.08289962 169.23275774 68.10362434 188.17261028 C68.11391437 197.33197074 68.12793099 206.49129655 68.15087891 215.65063477 C68.17088265 223.63869257 68.18373294 231.62672527 68.18817699 239.61480743 C68.19077259 243.84008094 68.19682544 248.06528267 68.21146011 252.29053307 C68.22515469 256.27710823 68.22919895 260.26358284 68.22621536 264.25017929 C68.22676026 265.70408871 68.23066637 267.1580019 68.23841095 268.61189079 C68.35353895 291.36362989 68.35353895 291.36362989 63 301 C62.54008649 302.52130603 62.1082162 304.05120527 61.6953125 305.5859375 C60.13788214 310.89118979 57.93447555 315.58345799 55.3125 320.4375 C54.86898193 321.26515869 54.42546387 322.09281738 53.96850586 322.94555664 C43.47740796 342.18080655 27.84389917 358.80248545 9 370 C7.56071945 370.91386844 6.12304226 371.83027045 4.6875 372.75 C1.54291754 374.7057769 -1.64230309 376.42831208 -5 378 C-6.03125 378.495 -7.0625 378.99 -8.125 379.5 C-12.33006577 381.2848168 -16.72609571 382.26016425 -21.16015625 383.3125 C-23.27140665 383.82361427 -25.36213849 384.42102462 -27.4375 385.0625 C-45.06082881 389.70021811 -67.87644421 390.92725666 -85 384 C-87.39033049 383.37441636 -89.78682238 382.77212097 -92.1875 382.1875 C-97.84901507 380.75410858 -102.92181525 378.86607768 -108.046875 376.05078125 C-110.11346625 374.86718426 -110.11346625 374.86718426 -113 374 C-113 373.34 -113 372.68 -113 372 C-113.804375 371.79375 -114.60875 371.5875 -115.4375 371.375 C-140.6120976 361.65848865 -158.39906397 335.47102182 -168.94140625 311.88671875 C-171.45907388 306.03013627 -173.44404831 300.1804174 -175 294 C-175.26039063 292.96584961 -175.52078125 291.93169922 -175.7890625 290.86621094 C-177.79944619 282.23831427 -178.57887098 274.03742854 -178.5625 265.1875 C-178.56301361 264.52479095 -178.56352722 263.86208191 -178.5640564 263.17929077 C-178.45081353 228.54920852 -163.41265788 198.47357583 -139.25390625 174.24609375 C-128.86316295 164.18946358 -117.07064736 157.13867109 -104 151 C-103.31421875 150.63261719 -102.6284375 150.26523438 -101.921875 149.88671875 C-83.50242363 140.49569925 -58.00049882 142 -39 142 C-39 165.1 -39 188.2 -39 212 C-40.65 211.67 -42.3 211.34 -44 211 C-45.76452396 210.8599637 -47.53219044 210.7559922 -49.30078125 210.68359375 C-50.27724609 210.64169922 -51.25371094 210.59980469 -52.25976562 210.55664062 C-53.26716797 210.51732422 -54.27457031 210.47800781 -55.3125 210.4375 C-56.85260742 210.37272461 -56.85260742 210.37272461 -58.42382812 210.30664062 C-60.94909569 210.20093175 -63.47445562 210.09883532 -66 210 C-66 210.66 -66 211.32 -66 212 C-66.81082031 212.20753906 -67.62164062 212.41507813 -68.45703125 212.62890625 C-83.61126412 216.84527605 -94.36186078 224.71131789 -102.375 238.375 C-109.03164475 251.65130813 -110.35460505 267.62660606 -106.5 282 C-104.16203417 288.53132803 -100.36726436 293.67492515 -96 299 C-95.55527344 299.59554688 -95.11054688 300.19109375 -94.65234375 300.8046875 C-88.47085572 308.89300743 -80.86067898 312.06421462 -71.390625 314.921875 C-68 316 -68 316 -66.03515625 317.12890625 C-62.84357433 318.49497682 -59.59718944 318.24731911 -56.1875 318.1875 C-55.50107422 318.18685547 -54.81464844 318.18621094 -54.10742188 318.18554688 C-39.71170298 318.06297216 -27.19759097 312.86622965 -16.77734375 302.8671875 C-5.26646796 290.51720114 -0.85742992 276.5802979 -0.84178162 259.99026489 C-0.83684364 258.87849565 -0.83190566 257.76672642 -0.82681805 256.6212672 C-0.81145625 252.89481114 -0.80308595 249.16837229 -0.79467773 245.44189453 C-0.78509818 242.7710902 -0.77513112 240.10028993 -0.76467896 237.42948914 C-0.74294652 231.67884155 -0.72479025 225.92819162 -0.70907402 220.17752457 C-0.68634591 211.86306165 -0.65820718 203.54862395 -0.62875474 195.23418246 C-0.58111487 181.74402341 -0.53784093 168.25385403 -0.49731445 154.76367188 C-0.45794117 141.6604736 -0.41651056 128.55728449 -0.37231445 115.45410156 C-0.36822804 114.24225237 -0.36822804 114.24225237 -0.36405908 113.00592138 C-0.3503793 108.95286176 -0.33665909 104.89980228 -0.32291877 100.84674287 C-0.20901062 67.23117991 -0.10299343 33.61559861 0 0 Z " fill="#FDFDFE" transform="translate(255,54)"/>
<path d="M0 0 C20 1 20 1 21 2 C21.0942174 4.11681317 21.11742761 6.23680758 21.11352539 8.35571289 C21.11367142 9.01910172 21.11381744 9.68249054 21.1139679 10.36598206 C21.11326881 12.56823956 21.10547665 14.77041345 21.09765625 16.97265625 C21.09579206 18.49580336 21.09436816 20.01895107 21.09336853 21.542099 C21.08954346 25.55837651 21.07971328 29.57461808 21.06866455 33.59088135 C21.05845019 37.68623366 21.05387086 41.78159176 21.04882812 45.87695312 C21.038091 53.91798528 21.02101472 61.95898817 21 70 C19.12015274 70.01790466 17.24025485 70.03053071 15.36035156 70.04101562 C13.79006195 70.05243591 13.79006195 70.05243591 12.18804932 70.06408691 C7.3069117 69.96596514 2.56454554 69.26454157 -2.25 68.5 C-3.19746094 68.35691406 -4.14492188 68.21382813 -5.12109375 68.06640625 C-7.4153898 67.71878564 -9.70814355 67.36329596 -12 67 C-12 66.34 -12 65.68 -12 65 C-12.59425781 64.96261719 -13.18851562 64.92523438 -13.80078125 64.88671875 C-20.47134587 64.3576382 -26.60272899 62.93377584 -33 61 C-33 60.34 -33 59.68 -33 59 C-33.99 58.896875 -34.98 58.79375 -36 58.6875 C-40.28297163 58.09191294 -43.99996371 56.61404973 -48 55 C-48 54.34 -48 53.68 -48 53 C-48.66 52.9175 -49.32 52.835 -50 52.75 C-53.99039163 51.75240209 -57.38549643 49.92833317 -61 48 C-61 47.34 -61 46.68 -61 46 C-61.721875 45.731875 -62.44375 45.46375 -63.1875 45.1875 C-65.97779843 44.009374 -68.42249326 42.5811596 -71 41 C-70.99723462 41.71854786 -70.99446924 42.43709572 -70.99162006 43.17741776 C-70.92504615 60.75106002 -70.87556788 78.32466979 -70.84456348 95.8984108 C-70.82916722 104.39732677 -70.80821827 112.896158 -70.77368164 121.39501953 C-70.74355532 128.81218617 -70.72437256 136.22929138 -70.71773452 143.64651752 C-70.7138611 147.56521648 -70.70491409 151.48373985 -70.68280983 155.4023819 C-70.59379667 171.81507433 -70.74790905 187.84077896 -74 204 C-74.19684891 204.99485413 -74.39369781 205.98970825 -74.59651184 207.01470947 C-74.72966293 207.66985535 -74.86281403 208.32500122 -75 209 C-75.66 209 -76.32 209 -77 209 C-77.0825 209.928125 -77.165 210.85625 -77.25 211.8125 C-78.55299037 220.78865591 -82.80148922 229.06756774 -87 237 C-87.66 237 -88.32 237 -89 237 C-89.26039063 237.721875 -89.52078125 238.44375 -89.7890625 239.1875 C-95.67171068 252.8504248 -109.1647473 265.37366749 -121 274 C-121.88042969 274.66128906 -122.76085937 275.32257813 -123.66796875 276.00390625 C-130.89183968 281.28576165 -130.89183968 281.28576165 -136 282 C-136 282.66 -136 283.32 -136 284 C-137.00160156 284.39832031 -138.00320313 284.79664063 -139.03515625 285.20703125 C-140.37762296 285.74214036 -141.72006981 286.27729928 -143.0625 286.8125 C-143.71927734 287.07353516 -144.37605469 287.33457031 -145.05273438 287.60351562 C-148.29499544 288.89722571 -151.51577726 290.21864766 -154.7109375 291.625 C-160.67244954 294.11722356 -166.51793945 295.33241336 -173 295 C-173 295.66 -173 296.32 -173 297 C-180.19776253 297.95264504 -187.24412242 298.15106902 -194.5 298.125 C-195.57636719 298.12886719 -196.65273437 298.13273437 -197.76171875 298.13671875 C-203.92491206 298.12921182 -209.88953123 297.80873851 -216 297 C-216 296.34 -216 295.68 -216 295 C-216.66644531 294.96261719 -217.33289063 294.92523438 -218.01953125 294.88671875 C-224.98271493 294.39004411 -231.33366568 293.05018792 -238 291 C-238 290.34 -238 289.68 -238 289 C-238.804375 288.9175 -239.60875 288.835 -240.4375 288.75 C-244.95934205 287.79803325 -248.84702701 285.98419821 -253 284 C-253 283.34 -253 282.68 -253 282 C-253.928125 281.835 -254.85625 281.67 -255.8125 281.5 C-261.60126977 279.88009735 -266.51861852 275.88980671 -271 272 C-271 271.34 -271 270.68 -271 270 C-271.680625 269.814375 -272.36125 269.62875 -273.0625 269.4375 C-277.18689821 267.41917747 -279.90378945 264.33712607 -283 261 C-278.75354935 261 -276.61475228 262.81750806 -273 265 C-273 265.66 -273 266.32 -273 267 C-272.27425781 267.11730469 -271.54851562 267.23460937 -270.80078125 267.35546875 C-267.94999516 268.01150739 -265.78802524 268.98971315 -263.1875 270.3125 C-257.04707932 273.21050976 -250.79339578 274.69652856 -244.2109375 276.203125 C-241 277 -241 277 -240 278 C-220.78088705 282.30935921 -197.28504828 282.02019948 -178.83935547 274.70239258 C-175.48878854 273.4229154 -171.99710884 272.67930612 -168.515625 271.84375 C-165.8389705 270.9459901 -164.17860907 269.76606395 -162 268 C-160 267 -158 266 -156 265 C-129.00247453 250.30080283 -109.36227985 226.81348223 -99 198 C-98.72671875 197.30777344 -98.4534375 196.61554688 -98.171875 195.90234375 C-94.65400613 186.95247149 -92.89728342 177.9991319 -92.84178162 168.3497467 C-92.8319928 167.05275848 -92.82220398 165.75577026 -92.81211853 164.41947937 C-92.80621585 162.99978674 -92.80040531 161.58009373 -92.79467773 160.16040039 C-92.7850883 158.65199522 -92.77507761 157.14359268 -92.76467896 155.63519287 C-92.73773914 151.55517588 -92.71667073 147.47514745 -92.69667697 143.3950913 C-92.67474971 139.12563212 -92.64739411 134.85620777 -92.62062073 130.58677673 C-92.57078472 122.5086468 -92.5258123 114.43049745 -92.48259836 106.35232967 C-92.4331481 97.15280306 -92.37825895 87.9533114 -92.32291877 78.75381863 C-92.20923837 59.83591157 -92.10236918 40.91797148 -92 22 C-91.34 22 -90.68 22 -90 22 C-89.2575 22.74378906 -88.515 23.48757812 -87.75 24.25390625 C-75.98687212 36.00032514 -58.73692378 41.49014737 -43.01367188 45.40917969 C-41 46 -41 46 -38.7746582 46.98681641 C-35.13145253 48.31715548 -31.46192196 48.79177173 -27.63671875 49.2890625 C-26.58272888 49.43347778 -26.58272888 49.43347778 -25.50744629 49.58081055 C-22.9017484 49.93592211 -20.29453062 50.27980867 -17.6875 50.625 C-8.9321875 51.800625 -8.9321875 51.800625 0 53 C0 35.51 0 18.02 0 0 Z " fill="#FB0651" transform="translate(415,161)"/>
<path d="M0 0 C22.44 0 44.88 0 68 0 C68.99 7.92 68.99 7.92 70 16 C53.5 16 37 16 20 16 C20.01571045 24.16637207 20.0314209 32.33274414 20.04760742 40.74658203 C20.09581229 66.91059848 20.12915093 93.07461376 20.15319599 119.23866291 C20.15694787 123.30640689 20.16083086 127.37415075 20.16479492 131.44189453 C20.16558185 132.2516694 20.16636878 133.06144428 20.16717956 133.89575778 C20.18021427 146.98750355 20.20385739 160.07920959 20.23145839 173.17093183 C20.25956655 186.6158845 20.27618767 200.06081643 20.28226548 213.50579727 C20.28637073 221.79429029 20.29931134 230.08267096 20.3237494 238.37112938 C20.33967347 244.06381989 20.34438535 249.75645279 20.34050413 255.44916393 C20.33859289 258.72786687 20.34307888 262.00633452 20.35761642 265.28501129 C20.45403138 288.15992443 18.97350213 304.41800365 2.625 321.8125 C-5.21216476 329.14121336 -13.49852023 331.9951862 -23.75390625 334.23828125 C-26.83652198 334.66089936 -26.83652198 334.66089936 -28 336 C-40.23852263 337.34999978 -53.41621344 334.17387549 -64 328 C-64 327.34 -64 326.68 -64 326 C-64.680625 325.814375 -65.36125 325.62875 -66.0625 325.4375 C-70.15225868 323.43612873 -73.10471762 320.4945747 -76 317 C-76.495 315.515 -76.495 315.515 -77 314 C-75.58194169 314.28482368 -74.16559621 314.57818144 -72.75 314.875 C-71.56664062 315.11863281 -71.56664062 315.11863281 -70.359375 315.3671875 C-68 316 -68 316 -66.19140625 317.05859375 C-62.92263845 318.46282377 -59.68048447 318.24878043 -56.1875 318.1875 C-55.50107422 318.18685547 -54.81464844 318.18621094 -54.10742188 318.18554688 C-39.71170298 318.06297216 -27.19759097 312.86622965 -16.77734375 302.8671875 C-5.26646796 290.51720114 -0.85742992 276.5802979 -0.84178162 259.99026489 C-0.83684364 258.87849565 -0.83190566 257.76672642 -0.82681805 256.6212672 C-0.81145625 252.89481114 -0.80308595 249.16837229 -0.79467773 245.44189453 C-0.78509818 242.7710902 -0.77513112 240.10028993 -0.76467896 237.42948914 C-0.74294652 231.67884155 -0.72479025 225.92819162 -0.70907402 220.17752457 C-0.68634591 211.86306165 -0.65820718 203.54862395 -0.62875474 195.23418246 C-0.58111487 181.74402341 -0.53784093 168.25385403 -0.49731445 154.76367188 C-0.45794117 141.6604736 -0.41651056 128.55728449 -0.37231445 115.45410156 C-0.36959018 114.6462021 -0.36686591 113.83830264 -0.36405908 113.00592138 C-0.3503793 108.95286176 -0.33665909 104.89980228 -0.32291877 100.84674287 C-0.20901062 67.23117991 -0.10299343 33.61559861 0 0 Z " fill="#02F5EE" transform="translate(255,54)"/>
<path d="M0 0 C0.65597672 0.00141495 1.31195343 0.0028299 1.98780823 0.00428772 C4.05572327 0.00982594 6.12352467 0.02236623 8.19140625 0.03515625 C9.60481613 0.04017926 11.01822773 0.04474075 12.43164062 0.04882812 C15.87247343 0.05891854 19.31306463 0.078505 22.75390625 0.09765625 C22.75390625 5.37765625 22.75390625 10.65765625 22.75390625 16.09765625 C20.31564453 16.38769531 20.31564453 16.38769531 17.828125 16.68359375 C15.69916714 16.94619648 13.57026364 17.20924023 11.44140625 17.47265625 C10.36955078 17.59898437 9.29769531 17.7253125 8.19335938 17.85546875 C6.65131836 18.04882812 6.65131836 18.04882812 5.078125 18.24609375 C4.13026123 18.36130371 3.18239746 18.47651367 2.20581055 18.59521484 C-0.48770245 18.98690137 -0.48770245 18.98690137 -3.24609375 21.09765625 C-5.29631672 21.60810848 -7.36153105 22.0597012 -9.43359375 22.47265625 C-14.22478232 23.52023022 -18.18631398 24.80807642 -22.45703125 27.1796875 C-25.27830811 28.62728589 -28.17771794 29.3305623 -31.24609375 30.09765625 C-31.24609375 30.75765625 -31.24609375 31.41765625 -31.24609375 32.09765625 C-31.90996094 32.4121875 -32.57382813 32.72671875 -33.2578125 33.05078125 C-34.14082031 33.47875 -35.02382812 33.90671875 -35.93359375 34.34765625 C-36.80371094 34.7653125 -37.67382812 35.18296875 -38.5703125 35.61328125 C-41.42300869 37.19579884 -43.74699748 39.00466312 -46.24609375 41.09765625 C-47.10847656 41.7834375 -47.97085938 42.46921875 -48.859375 43.17578125 C-68.87183942 59.2784299 -84.67836932 80.62739447 -90.24609375 106.09765625 C-90.90609375 106.09765625 -91.56609375 106.09765625 -92.24609375 106.09765625 C-93.79639483 116.5752778 -94.59319942 126.84179704 -94.56176758 137.43432617 C-94.55858957 139.66308847 -94.58226615 141.89053884 -94.60742188 144.11914062 C-94.66124568 156.5632223 -93.22120312 168.56117075 -88.24609375 180.09765625 C-87.62026905 181.70150136 -86.99533046 183.30569241 -86.37109375 184.91015625 C-84.48064338 189.63628218 -82.37005512 194.24443696 -80.19921875 198.84765625 C-79.24609375 201.09765625 -79.24609375 201.09765625 -79.24609375 203.09765625 C-78.58609375 203.09765625 -77.92609375 203.09765625 -77.24609375 203.09765625 C-76.05066897 204.77890637 -74.93896532 206.52013708 -73.87109375 208.28515625 C-72.03988461 211.29818098 -70.24601357 214.09775486 -68.01953125 216.8359375 C-66.24609375 219.09765625 -66.24609375 219.09765625 -66.24609375 221.09765625 C-69.75820967 219.57170244 -72.24234057 217.48691703 -75.05859375 214.91015625 C-76.27482422 213.80607422 -76.27482422 213.80607422 -77.515625 212.6796875 C-94.96934107 196.17481437 -107.35263967 175.50712739 -113.24609375 152.09765625 C-113.63667969 150.54643066 -113.63667969 150.54643066 -114.03515625 148.96386719 C-116.04553994 140.33597052 -116.82496473 132.13508479 -116.80859375 123.28515625 C-116.80910736 122.6224472 -116.80962097 121.95973816 -116.81015015 121.27694702 C-116.69690728 86.64686477 -101.65875163 56.57123208 -77.5 32.34375 C-67.1092567 22.28711983 -55.31674111 15.23632734 -42.24609375 9.09765625 C-41.5603125 8.73027344 -40.87453125 8.36289063 -40.16796875 7.984375 C-28.61132414 2.09230619 -12.79810952 -0.05492751 0 0 Z " fill="#02F3EC" transform="translate(193.24609375,195.90234375)"/>
<path d="M0 0 C6.6 0 13.2 0 20 0 C21 1 21 1 21.12025452 3.81568909 C21.11803391 5.07477585 21.11581329 6.33386261 21.11352539 7.63110352 C21.11367142 8.32375305 21.11381744 9.01640259 21.1139679 9.7300415 C21.11326874 12.02969446 21.10547628 14.32926737 21.09765625 16.62890625 C21.09579208 18.21931412 21.09436817 19.80972257 21.09336853 21.40013123 C21.08954329 25.5939593 21.07971295 29.78775295 21.06866455 33.98156738 C21.05845057 38.25788914 21.05387094 42.53421644 21.04882812 46.81054688 C21.03809069 55.20704708 21.02101419 63.60351926 21 72 C18.03 71.67 15.06 71.34 12 71 C12 70.34 12 69.68 12 69 C-7.62278958 70.17747768 -23.03043017 73.92542401 -37.11328125 88.63671875 C-45.40824321 99.02688849 -48.39143872 109.79508626 -48.25 122.8125 C-48.24419922 124.11429199 -48.24419922 124.11429199 -48.23828125 125.44238281 C-48.14914677 132.09528129 -47.47948518 138.50083295 -46 145 C-45.34 145 -44.68 145 -44 145 C-42.68 147.97 -41.36 150.94 -40 154 C-49.11843817 152.70649126 -54.99412293 145.32695719 -60.28515625 138.328125 C-61.13400391 137.17570312 -61.13400391 137.17570312 -62 136 C-62.7425 135.071875 -63.485 134.14375 -64.25 133.1875 C-71.4340639 120.10224075 -72.07799046 104.72046322 -68.375 90.4375 C-63.45485313 75.67705939 -53.72788819 64.299911 -40 57 C-35.72666418 54.96853306 -31.80546221 53.54948792 -27 54 C-27 53.34 -27 52.68 -27 52 C-23.4375692 51.94172442 -19.87526181 51.90631115 -16.3125 51.875 C-15.30509766 51.85824219 -14.29769531 51.84148437 -13.25976562 51.82421875 C-11.79506836 51.81455078 -11.79506836 51.81455078 -10.30078125 51.8046875 C-9.40528564 51.79421387 -8.50979004 51.78374023 -7.5871582 51.77294922 C-5 52 -5 52 0 54 C0 36.18 0 18.36 0 0 Z " fill="#FA0651" transform="translate(216,212)"/>
<path d="M0 0 C6.6 0 13.2 0 20 0 C20.268125 3.031875 20.53625 6.06375 20.8125 9.1875 C21.50080579 16.50201536 22.54552886 23.45302817 24.4140625 30.56640625 C25 33 25 33 25 36 C25.66 36 26.32 36 27 36 C27.67057887 37.7902061 28.3363469 39.58221489 29 41.375 C29.556875 42.87160156 29.556875 42.87160156 30.125 44.3984375 C31 47 31 47 31 49 C31.66 49 32.32 49 33 49 C34.4375 51.08203125 34.4375 51.08203125 36 53.8125 C37.60978272 56.60144856 39.21271876 59.31907813 41 62 C35.3515188 60.62441858 32.14931175 57.90968305 28.0625 54 C27.45003418 53.4227417 26.83756836 52.8454834 26.20654297 52.25073242 C21.45959883 47.67237489 17.1515467 42.84102451 14 37 C14 36.34 14 35.68 14 35 C13.34 35 12.68 35 12 35 C6.0122074 23.61111494 2.85898494 12.56220656 0 0 Z " fill="#F30851" transform="translate(325,70)"/>
<path d="M0 0 C0.87398438 0.38671875 1.74796875 0.7734375 2.6484375 1.171875 C16.68032196 7.18913414 30.75429568 10.29089747 46 11 C46 15.95 46 20.9 46 26 C43.69 25.67 41.38 25.34 39 25 C39 24.34 39 23.68 39 23 C38.46375 22.9484375 37.9275 22.896875 37.375 22.84375 C24.26036058 20.94557851 11.21666297 13.39322739 2 4 C0.7109375 1.734375 0.7109375 1.734375 0 0 Z " fill="#07F1EB" transform="translate(369,135)"/>
<path d="M0 0 C3.33333333 1.66666667 6.66666667 3.33333333 10 5 C10 5.66 10 6.32 10 7 C10.78375 7.12375 11.5675 7.2475 12.375 7.375 C15 8 15 8 17 10 C16.01 10 15.02 10 14 10 C14 10.66 14 11.32 14 12 C14.66 12 15.32 12 16 12 C15.67 12.66 15.34 13.32 15 14 C14.01 13.34 13.02 12.68 12 12 C12 11.34 12 10.68 12 10 C11.319375 9.814375 10.63875 9.62875 9.9375 9.4375 C5.84063928 7.43265326 2.97744377 4.42363131 0 1 C0 0.67 0 0.34 0 0 Z " fill="#E71B5A" transform="translate(132,421)"/>
<path d="M0 0 C0.33 0 0.66 0 1 0 C1.38063221 2.3260857 1.71269945 4.66055264 2 7 C1.67 7.33 1.34 7.66 1 8 C0.91152257 10.52094076 0.88472699 13.01430893 0.90234375 15.53515625 C0.9037587 16.28840683 0.90517365 17.04165741 0.90663147 17.81773376 C0.91224624 20.2326956 0.92480117 22.64756601 0.9375 25.0625 C0.9425131 26.69596221 0.94707634 28.32942586 0.95117188 29.96289062 C0.96222046 33.97529585 0.97949494 37.98763241 1 42 C0.67 42 0.34 42 0 42 C-0.77914664 37.17927196 -1.12836013 32.55717313 -1.1328125 27.67578125 C-1.13376923 27.00709518 -1.13472595 26.33840912 -1.13571167 25.64945984 C-1.13638701 24.24864609 -1.13457821 22.84782908 -1.13037109 21.44702148 C-1.12498794 19.30770872 -1.13035104 17.16860344 -1.13671875 15.02929688 C-1.13605835 13.66145787 -1.13477798 12.293619 -1.1328125 10.92578125 C-1.13168457 9.69255127 -1.13055664 8.45932129 -1.12939453 7.1887207 C-1.02362155 4.58211527 -0.77538044 2.47128453 0 0 Z " fill="#008F8B" transform="translate(78,299)"/>
<path d="M0 0 C1.48117801 0.28127421 2.95993249 0.57533732 4.4375 0.875 C5.67306641 1.11863281 5.67306641 1.11863281 6.93359375 1.3671875 C7.61550781 1.57601563 8.29742187 1.78484375 9 2 C9.33 2.66 9.66 3.32 10 4 C8.35 4 6.7 4 5 4 C4.67 4.66 4.34 5.32 4 6 C0 1.125 0 1.125 0 0 Z " fill="#09AEAA" transform="translate(178,368)"/>
<path d="M0 0 C3.33333333 1.66666667 6.66666667 3.33333333 10 5 C10 5.33 10 5.66 10 6 C7.8125 6.375 7.8125 6.375 5 6 C3.00977164 4.16038352 1.61010101 2.20813852 0 0 Z " fill="#DC5380" transform="translate(132,421)"/>
</svg>
